# xmcd
#
# Track frame offsets: 
#        150
#        13130
#        24210
#        35930
#        47377
#        57197
#        67507
#        77832
#        88297
#        98885
#        109297
#        119390
#
# Disc length: 1731 seconds
#
# Revision: 3
# Processed by: cddbd v1.5.1PL2 Copyright (c) Steve Scherf et al.
# Submitted via: ExactAudioCopy v0.95b4
#
DISCID=9506c10c
DTITLE=George Jones - 36 All Time Hits - Disc 1 - That Jones Boy
DYEAR=1993
DGENRE=Country
TTITLE0=The Bird
TTITLE1=No Show Jones
TTITLE2=White Lightning
TTITLE3=The Corvette Song
TTITLE4=We Didn't See A Thing
TTITLE5=The Race Is On
TTITLE6=Old King Kong
TTITLE7=Her Name Is...
TTITLE8=I'm Ragged But I'm Right
TTITLE9=Billy Ray Wrote A Song
TTITLE10=Have You Seen My Chicken?
TTITLE11=When You're Ugly Like Us
EXTD=YEAR: 1993
EXTT0=
EXTT1=
EXTT2=
EXTT3=
EXTT4=
EXTT5=
EXTT6=
EXTT7=
EXTT8=
EXTT9=
EXTT10=
EXTT11=
PLAYORDER=
